<svg xmlns="http://www.w3.org/2000/svg" xmlns:xlink="http://www.w3.org/1999/xlink" version="1.1" x="0px" y="0px" viewBox="0 0 50 62.5" style="enable-background:new 0 0 50 50;" xml:space="preserve"><path d="M25,45.8583984c-3.2919922,0-10.7138672-0.3388672-15.3232422-0.8916016  c-2.6757813-0.3212891-4.1103516-1.8427734-4.7949219-5.0859375c-0.1777344-0.8457031-0.7578125-4.4150391-0.7578125-14.887207  c0-7.3681641,0.2529297-12.5117188,0.7519531-15.2880859c0.6083984-3.3725586,1.7070313-4.605957,4.5195313-5.0766602  C12.390625,4.1279297,17.4072266,4.1279297,25,4.1279297s12.609375,0,15.6044922,0.5009766  c2.8125,0.4707031,3.9111328,1.7041016,4.5195313,5.0756836c0.4990234,2.7773438,0.7519531,7.9208984,0.7519531,15.2890625  c0,10.472168-0.5800781,14.0415039-0.7578125,14.8862305c-0.6845703,3.2441406-2.1191406,4.765625-4.7949219,5.0869141  C35.7138672,45.5195313,28.2919922,45.8583984,25,45.8583984z M25,6.1279297c-7.4931641,0-12.4433594,0-15.2744141,0.4736328  C8.1113281,6.871582,7.3759766,7.1147461,6.8447266,10.0600586c-0.4716797,2.621582-0.7207031,7.7856445-0.7207031,14.9335938  c0,10.543457,0.5957031,13.9067383,0.7148438,14.4741211c0.5722656,2.7119141,1.5224609,3.3271484,3.0761719,3.5126953  C14.4501953,43.5244141,21.7578125,43.8583984,25,43.8583984s10.5498047-0.3339844,15.0849609-0.8779297  c1.5537109-0.1855469,2.5039063-0.8007813,3.0761719-3.5136719c0.1191406-0.5664063,0.7148438-3.9296875,0.7148438-14.4731445  c0-7.1479492-0.2490234-12.3120117-0.7207031-14.9345703c-0.53125-2.9443359-1.2666016-3.1875-2.8808594-3.4575195  C37.4433594,6.1279297,32.4931641,6.1279297,25,6.1279297z M13.7828674,18.7361736  c-1.4163523,0-2.5645323,1.14818-2.5645323,2.5645313c0,1.4163532,1.14818,2.5645332,2.5645323,2.5645332  s2.5645313-1.14818,2.5645313-2.5645332C16.3473988,19.8843536,15.1992197,18.7361736,13.7828674,18.7361736z   M36.2506676,18.7361736c-1.4163513,0-2.5645294,1.14818-2.5645294,2.5645313c0,1.4163532,1.1481781,2.5645332,2.5645294,2.5645332  s2.5645332-1.14818,2.5645332-2.5645332C38.8152008,19.8843536,37.6670189,18.7361736,36.2506676,18.7361736z   M17.6425781,37.0449219c0.9160156-4.0429688,9.5068359-6.0605469,15.2597656-5.7529297  c0.5283203,0.0224609,1.0234375-0.3916016,1.0537109-0.9423828c0.03125-0.5507813-0.390625-1.0234375-0.9423828-1.0537109  c-6.2304688-0.3613281-16.0595703,1.7304688-17.3222656,7.3076172c-0.1220703,0.5380859,0.2158203,1.0742188,0.7548828,1.1962891  c0.0742188,0.0166016,0.1484375,0.0244141,0.2216797,0.0244141C17.125,37.8242188,17.5371094,37.5097656,17.6425781,37.0449219z"/><text x="0" y="65" fill="#000000" font-size="5px" font-weight="bold" font-family="'Helvetica Neue', Helvetica, Arial-Unicode, Arial, Sans-serif">Created by ATOM</text><text x="0" y="70" fill="#000000" font-size="5px" font-weight="bold" font-family="'Helvetica Neue', Helvetica, Arial-Unicode, Arial, Sans-serif">from the Noun Project</text></svg>